<svg width="28" height="28" viewBox="0 0 28 28" fill="none" xmlns="http://www.w3.org/2000/svg">
<path d="M15.75 4.75366C15.75 3.53041 14.2257 2.97216 13.4356 3.90491L9.86038 8.13116C9.69608 8.32504 9.49152 8.48081 9.26094 8.58764C9.03035 8.69448 8.77926 8.7498 8.52513 8.74978H5.25C4.32174 8.74978 3.4315 9.11853 2.77513 9.77491C2.11875 10.4313 1.75 11.3215 1.75 12.2498V15.7498C1.75 16.678 2.11875 17.5683 2.77513 18.2247C3.4315 18.881 4.32174 19.2498 5.25 19.2498H8.52513C8.77933 19.2499 9.03046 19.3053 9.26105 19.4123C9.49164 19.5193 9.69616 19.6752 9.86038 19.8693L13.4356 24.0947C14.2249 25.0274 15.75 24.4692 15.75 23.2459V4.75366ZM18.7539 8.02878C18.8486 7.96365 18.9552 7.91782 19.0677 7.89391C19.1801 7.87 19.2962 7.86849 19.4092 7.88945C19.5222 7.91042 19.63 7.95345 19.7264 8.01609C19.8228 8.07874 19.9059 8.15976 19.971 8.25453C21.2529 10.1183 21.9293 12.038 21.9293 13.9998C21.9293 15.9615 21.2529 17.8813 19.971 19.7459C19.9064 19.8419 19.8235 19.9241 19.727 19.9878C19.6305 20.0515 19.5223 20.0954 19.4087 20.1171C19.2951 20.1387 19.1783 20.1376 19.0651 20.1138C18.9519 20.09 18.8446 20.044 18.7493 19.9785C18.654 19.913 18.5726 19.8293 18.5099 19.7321C18.4472 19.6349 18.4043 19.5263 18.3838 19.4125C18.3633 19.2987 18.3656 19.1819 18.3905 19.069C18.4155 18.956 18.4625 18.8492 18.529 18.7545C19.6534 17.1183 20.1801 15.538 20.1801 13.9998C20.1801 12.4615 19.6534 10.8813 18.529 9.24591C18.3977 9.05466 18.3478 8.81912 18.3901 8.59105C18.4324 8.36298 18.5636 8.16106 18.7547 8.02966M22.4796 4.61716C22.3964 4.53787 22.2984 4.47575 22.1912 4.43433C22.084 4.39292 21.9697 4.37303 21.8548 4.37579C21.74 4.37855 21.6267 4.40392 21.5216 4.45044C21.4166 4.49695 21.3217 4.56372 21.2424 4.64691C21.1631 4.7301 21.101 4.82809 21.0596 4.9353C21.0181 5.0425 20.9982 5.1568 21.001 5.27169C21.0038 5.38658 21.0291 5.4998 21.0757 5.60489C21.1222 5.70998 21.1889 5.80487 21.2721 5.88416C23.3608 7.87303 24.4466 10.9058 24.4466 14.0007C24.4466 17.0955 23.3608 20.1283 21.2721 22.1172C21.1889 22.1964 21.1222 22.2913 21.0757 22.3964C21.0291 22.5015 21.0038 22.6147 21.001 22.7296C20.9982 22.8445 21.0181 22.9588 21.0596 23.066C21.101 23.1732 21.1631 23.2712 21.2424 23.3544C21.3217 23.4376 21.4166 23.5044 21.5216 23.5509C21.6267 23.5974 21.74 23.6228 21.8548 23.6255C21.9697 23.6283 22.084 23.6084 22.1912 23.567C22.2984 23.5256 22.3964 23.4634 22.4796 23.3842C24.9848 20.998 26.1957 17.4683 26.1957 14.0007C26.1957 10.533 24.9848 7.00241 22.4788 4.61628" fill="white"/>
</svg>
