<svg width="40" height="40" viewBox="0 0 40 40" fill="none" xmlns="http://www.w3.org/2000/svg">
<path d="M20 36.6666C17.6944 36.6666 15.5278 36.2288 13.5 35.3533C11.4722 34.4777 9.70833 33.2905 8.20833 31.7916C6.70833 30.2927 5.52111 28.5288 4.64666 26.4999C3.77222 24.471 3.33444 22.3044 3.33333 19.9999C3.33222 17.6955 3.77 15.5288 4.64666 13.4999C5.52333 11.471 6.71055 9.70714 8.20833 8.20825C9.70611 6.70936 11.47 5.52214 13.5 4.64659C15.53 3.77103 17.6967 3.33325 20 3.33325C22.3033 3.33325 24.47 3.77103 26.5 4.64659C28.53 5.52214 30.2939 6.70936 31.7917 8.20825C33.2894 9.70714 34.4772 11.471 35.355 13.4999C36.2328 15.5288 36.67 17.6955 36.6667 19.9999C36.6633 22.3044 36.2256 24.471 35.3533 26.4999C34.4811 28.5288 33.2939 30.2927 31.7917 31.7916C30.2894 33.2905 28.5256 34.4783 26.5 35.3549C24.4744 36.2316 22.3078 36.6688 20 36.6666ZM20 33.3333C23.7222 33.3333 26.875 32.0416 29.4583 29.4583C32.0417 26.8749 33.3333 23.7221 33.3333 19.9999C33.3333 16.2777 32.0417 13.1249 29.4583 10.5416C26.875 7.95825 23.7222 6.66659 20 6.66659C16.2778 6.66659 13.125 7.95825 10.5417 10.5416C7.95833 13.1249 6.66666 16.2777 6.66666 19.9999C6.66666 23.7221 7.95833 26.8749 10.5417 29.4583C13.125 32.0416 16.2778 33.3333 20 33.3333ZM20 29.9999C17.2222 29.9999 14.8611 29.0277 12.9167 27.0833C10.9722 25.1388 10 22.7777 10 19.9999C10 17.2221 10.9722 14.861 12.9167 12.9166C14.8611 10.9721 17.2222 9.99992 20 9.99992C22.7778 9.99992 25.1389 10.9721 27.0833 12.9166C29.0278 14.861 30 17.2221 30 19.9999C30 22.7777 29.0278 25.1388 27.0833 27.0833C25.1389 29.0277 22.7778 29.9999 20 29.9999ZM20 26.6666C21.8333 26.6666 23.4028 26.0138 24.7083 24.7083C26.0139 23.4027 26.6667 21.8333 26.6667 19.9999C26.6667 18.1666 26.0139 16.5971 24.7083 15.2916C23.4028 13.986 21.8333 13.3333 20 13.3333C18.1667 13.3333 16.5972 13.986 15.2917 15.2916C13.9861 16.5971 13.3333 18.1666 13.3333 19.9999C13.3333 21.8333 13.9861 23.4027 15.2917 24.7083C16.5972 26.0138 18.1667 26.6666 20 26.6666ZM20 23.3333C19.0833 23.3333 18.2989 23.0071 17.6467 22.3549C16.9944 21.7027 16.6678 20.9177 16.6667 19.9999C16.6656 19.0821 16.9922 18.2977 17.6467 17.6466C18.3011 16.9955 19.0856 16.6688 20 16.6666C20.9144 16.6644 21.6994 16.991 22.355 17.6466C23.0106 18.3021 23.3367 19.0866 23.3333 19.9999C23.33 20.9133 23.0039 21.6983 22.355 22.3549C21.7061 23.0116 20.9211 23.3377 20 23.3333Z" fill="#ED7071"/>
</svg>
