<svg width="40" height="40" viewBox="0 0 40 40" fill="none" xmlns="http://www.w3.org/2000/svg">
<path d="M20 3.33325C29.205 3.33325 36.6667 10.7949 36.6667 19.9999C36.6667 29.2049 29.205 36.6666 20 36.6666C10.795 36.6666 3.33334 29.2049 3.33334 19.9999C3.33334 10.7949 10.795 3.33325 20 3.33325ZM20 6.66659C16.4638 6.66659 13.0724 8.07134 10.5719 10.5718C8.07143 13.0723 6.66668 16.4637 6.66668 19.9999C6.66668 23.5361 8.07143 26.9275 10.5719 29.428C13.0724 31.9285 16.4638 33.3333 20 33.3333C23.5362 33.3333 26.9276 31.9285 29.4281 29.428C31.9286 26.9275 33.3333 23.5361 33.3333 19.9999C33.3333 16.4637 31.9286 13.0723 29.4281 10.5718C26.9276 8.07134 23.5362 6.66659 20 6.66659ZM20 24.9999C20.442 24.9999 20.866 25.1755 21.1785 25.4881C21.4911 25.8006 21.6667 26.2246 21.6667 26.6666C21.6667 27.1086 21.4911 27.5325 21.1785 27.8451C20.866 28.1577 20.442 28.3333 20 28.3333C19.558 28.3333 19.1341 28.1577 18.8215 27.8451C18.5089 27.5325 18.3333 27.1086 18.3333 26.6666C18.3333 26.2246 18.5089 25.8006 18.8215 25.4881C19.1341 25.1755 19.558 24.9999 20 24.9999ZM20 9.99992C20.442 9.99992 20.866 10.1755 21.1785 10.4881C21.4911 10.8006 21.6667 11.2246 21.6667 11.6666V21.6666C21.6667 22.1086 21.4911 22.5325 21.1785 22.8451C20.866 23.1577 20.442 23.3333 20 23.3333C19.558 23.3333 19.1341 23.1577 18.8215 22.8451C18.5089 22.5325 18.3333 22.1086 18.3333 21.6666V11.6666C18.3333 11.2246 18.5089 10.8006 18.8215 10.4881C19.1341 10.1755 19.558 9.99992 20 9.99992Z" fill="#0068FF"/>
</svg>
